<svg width="16" height="9" viewBox="0 0 16 9" fill="none" xmlns="http://www.w3.org/2000/svg">
<path d="M6.05998 8.66406H-2.35438e-05V6.17504e-05H6.05998V1.03206H1.15198V3.82806H5.31598V4.83606H1.15198V7.63206H6.05998V8.66406ZM9.09963 8.66406H7.94763V6.17504e-05H9.31563L11.8236 3.64806C11.9436 3.83206 12.1156 4.08806 12.3396 4.41606C12.5636 4.73606 12.7916 5.06006 13.0236 5.38806C13.2556 5.71606 13.4676 6.02006 13.6596 6.30006C13.8516 6.57206 13.9756 6.75606 14.0316 6.85206H14.0556C14.0476 6.58006 14.0396 6.28006 14.0316 5.95206C14.0316 5.62406 14.0316 5.29606 14.0316 4.96806C14.0316 4.63206 14.0316 4.30806 14.0316 3.99606C14.0316 3.67606 14.0316 3.39606 14.0316 3.15606V6.17504e-05H15.1836V8.66406H13.9956L11.1756 4.68006C11.0876 4.55206 10.9436 4.34006 10.7436 4.04406C10.5436 3.74006 10.3316 3.42406 10.1076 3.09606C9.89163 2.76806 9.68763 2.45606 9.49563 2.16006C9.30363 1.86406 9.17563 1.65206 9.11163 1.52406H9.08763C9.09563 1.74806 9.09963 2.03606 9.09963 2.38806C9.09963 2.74006 9.09963 3.10406 9.09963 3.48006C9.09963 3.85606 9.09963 4.22006 9.09963 4.57206C9.09963 4.91606 9.09963 5.19206 9.09963 5.40006V8.66406Z" fill="#141615"/>
</svg>
