<?xml version="1.0" standalone="no"?>
<!DOCTYPE svg PUBLIC "-//W3C//DTD SVG 20010904//EN"
 "http://www.w3.org/TR/2001/REC-SVG-20010904/DTD/svg10.dtd">
<svg version="1.0" xmlns="http://www.w3.org/2000/svg"
 width="256.000000pt" height="256.000000pt" viewBox="0 0 256.000000 256.000000"
 preserveAspectRatio="xMidYMid meet">

<g transform="translate(0.000000,256.000000) scale(0.100000,-0.100000)"
fill="#000000" stroke="none">
<path d="M0 1280 l0 -1280 1280 0 1280 0 0 1280 0 1280 -1280 0 -1280 0 0
-1280z m1550 595 l0 -45 44 0 44 0 7 -92 c3 -51 5 -154 3 -228 l-3 -135 -47
-3 -48 -3 0 -45 0 -44 -39 0 -39 0 -7 96 c-4 53 -5 123 -1 155 3 33 3 93 -1
134 l-6 75 -162 0 c-89 0 -190 -3 -224 -6 l-61 -7 0 -38 c0 -39 0 -39 39 -39
l39 0 7 -90 7 -90 44 0 44 0 0 -50 0 -50 45 0 45 0 0 -45 0 -45 45 0 45 0 0
-45 0 -45 44 0 45 0 3 -47 3 -48 41 -3 42 -3 7 -84 7 -84 41 -3 42 -3 0 -90 0
-90 -42 -3 -43 -3 0 45 0 46 -50 0 -50 0 0 45 0 45 -45 0 -45 0 0 50 0 50 -45
0 -45 0 0 45 0 45 -45 0 -45 0 0 45 0 45 -45 0 -45 0 0 45 0 45 -45 0 -45 0 0
-207 c0 -115 -3 -238 -7 -275 l-6 -68 -38 0 -38 0 -3 48 -3 47 -42 3 -43 3 0
545 0 544 360 0 360 0 0 -45z"/>
</g>
</svg>
