<?xml version="1.0" encoding="UTF-8"?>
<svg version="1.1" xmlns="http://www.w3.org/2000/svg" width="1000" height="500">
<path d="M0 0 C0.55042969 0.3609375 1.10085938 0.721875 1.66796875 1.09375 C1.66796875 1.75375 1.66796875 2.41375 1.66796875 3.09375 C2.34859375 3.25875 3.02921875 3.42375 3.73046875 3.59375 C11.79324487 7.71091228 16.83297975 16.95449759 19.78515625 25.22265625 C20.88382089 30.04025208 20.99805356 34.54500427 20.98046875 39.46875 C20.99658203 40.36335938 21.01269531 41.25796875 21.02929688 42.1796875 C21.03714893 52.9841091 17.36096925 61.63419546 10.66796875 70.09375 C0.1160207 80.09375 0.1160207 80.09375 -6.33203125 80.09375 C-6.33203125 80.75375 -6.33203125 81.41375 -6.33203125 82.09375 C-15.24203125 82.09375 -24.15203125 82.09375 -33.33203125 82.09375 C-33.33203125 81.43375 -33.33203125 80.77375 -33.33203125 80.09375 C-34.05777344 79.98933594 -34.78351563 79.88492188 -35.53125 79.77734375 C-38.59187316 79.03032973 -40.54674603 77.91826352 -43.14453125 76.15625 C-43.93472656 75.63160156 -44.72492188 75.10695313 -45.5390625 74.56640625 C-46.42658203 73.83744141 -46.42658203 73.83744141 -47.33203125 73.09375 C-47.33203125 72.43375 -47.33203125 71.77375 -47.33203125 71.09375 C-47.91726563 70.88234375 -48.5025 70.6709375 -49.10546875 70.453125 C-52.14018274 68.60035225 -53.21717 66.42491398 -54.95703125 63.34375 C-55.84261719 61.80460937 -55.84261719 61.80460937 -56.74609375 60.234375 C-62.45731623 48.92446645 -62.20801921 36.22579118 -59.33203125 24.09375 C-58.48718715 21.60843192 -57.53042134 19.4360579 -56.33203125 17.09375 C-55.67203125 17.09375 -55.01203125 17.09375 -54.33203125 17.09375 C-54.14640625 16.43375 -53.96078125 15.77375 -53.76953125 15.09375 C-51.70067282 10.77613241 -48.59151194 7.56375394 -45.33203125 4.09375 C-44.86410156 3.57425781 -44.39617187 3.05476562 -43.9140625 2.51953125 C-32.95752045 -7.35488319 -12.19299646 -6.80539337 0 0 Z M-44.20703125 19.65625 C-46.3508826 22.5753935 -46.33203125 23.14349558 -46.33203125 27.09375 C-46.99203125 27.09375 -47.65203125 27.09375 -48.33203125 27.09375 C-49.25876931 29.87396418 -49.46058891 31.56608891 -49.46484375 34.4375 C-49.46613281 35.27152344 -49.46742188 36.10554688 -49.46875 36.96484375 C-49.46488281 37.83238281 -49.46101563 38.69992188 -49.45703125 39.59375 C-49.46089844 40.46128906 -49.46476562 41.32882813 -49.46875 42.22265625 C-49.46746094 43.05667969 -49.46617187 43.89070313 -49.46484375 44.75 C-49.46371582 45.51119141 -49.46258789 46.27238281 -49.46142578 47.05664062 C-49.40620275 49.29699188 -49.40620275 49.29699188 -48.33203125 52.09375 C-47.67203125 52.09375 -47.01203125 52.09375 -46.33203125 52.09375 C-46.24953125 52.609375 -46.16703125 53.125 -46.08203125 53.65625 C-43.95229949 60.57787823 -40.71901763 64.16575848 -34.66015625 67.9375 C-31.45676037 69.52844829 -28.88815835 69.94242544 -25.33203125 70.09375 C-25.33203125 70.75375 -25.33203125 71.41375 -25.33203125 72.09375 C-21.70203125 72.09375 -18.07203125 72.09375 -14.33203125 72.09375 C-14.33203125 71.43375 -14.33203125 70.77375 -14.33203125 70.09375 C-12.84703125 70.031875 -12.84703125 70.031875 -11.33203125 69.96875 C-6.46612039 69.30205056 -2.78486253 66.47483414 0.66796875 63.09375 C0.66796875 62.43375 0.66796875 61.77375 0.66796875 61.09375 C1.27253906 60.85269531 1.87710938 60.61164063 2.5 60.36328125 C6.66905973 57.92193997 8.12232589 53.50575294 9.66796875 49.09375 C11.84406442 37.41815979 9.9729048 28.1094931 3.66796875 18.09375 C1.76006803 15.99834061 0.05317343 14.68388645 -2.33203125 13.09375 C-2.99203125 13.09375 -3.65203125 13.09375 -4.33203125 13.09375 C-4.33203125 12.43375 -4.33203125 11.77375 -4.33203125 11.09375 C-19.19753564 3.87059819 -33.92289234 6.2496288 -44.20703125 19.65625 Z " fill="#060606" transform="translate(423.33203125,210.90625)"/>
<path d="M0 0 C40.53457447 0 40.53457447 0 47.60546875 6.46875 C54.57676838 14.04250763 55.56018903 21.2907794 55.359375 31.3515625 C54.8931879 36.08437499 53.78115775 40.10265853 51 44 C48 46 48 46 44.375 45.75 C43.26125 45.5025 42.1475 45.255 41 45 C39.58999336 42.17998673 39.75451549 40.12992745 40 37 C40.95093297 35.30485863 41.95107762 33.63631892 43 32 C44.53017107 27.52719227 43.63887908 24.3703442 42 20 C39.21264575 15.52032353 37.04899256 14.28732592 32 13 C28.37908242 12.63092278 24.76175004 12.49326829 21.125 12.375 C20.15046875 12.33632812 19.1759375 12.29765625 18.171875 12.2578125 C15.7814328 12.16406967 13.39098756 12.0783617 11 12 C11.14109986 14.10448938 11.28804175 16.2085877 11.4375 18.3125 C11.51871094 19.48425781 11.59992188 20.65601563 11.68359375 21.86328125 C11.8867371 25.02590958 11.8867371 25.02590958 13 28 C13.66 28 14.32 28 15 28 C16.2890625 29.4609375 16.2890625 29.4609375 17.625 31.375 C18.07101562 32.00148437 18.51703125 32.62796875 18.9765625 33.2734375 C20 35 20 35 20 37 C20.66 37 21.32 37 22 37 C24.36214538 39.64846603 25.87172132 41.61516396 27 45 C28.485 45.495 28.485 45.495 30 46 C32.07530387 48.92079805 33 50.37546731 33 54 C33.66 54 34.32 54 35 54 C35 54.66 35 55.32 35 56 C35.66 56 36.32 56 37 56 C38.2890625 57.4609375 38.2890625 57.4609375 39.625 59.375 C40.07101562 60.00148438 40.51703125 60.62796875 40.9765625 61.2734375 C42 63 42 63 42 65 C42.66 65 43.32 65 44 65 C45.68790613 66.98665058 47.26000255 68.97393331 48.8125 71.0625 C49.26028809 71.65579102 49.70807617 72.24908203 50.16943359 72.86035156 C51.45408368 74.5679221 52.72905673 76.28221212 54 78 C54.58394531 78.78761719 55.16789063 79.57523437 55.76953125 80.38671875 C59 84.82744957 59 84.82744957 59 86 C53.813304 86.66859753 49.16721766 86.96231584 44 86 C40.37266202 82.81812458 38.34111271 79.16935279 36 75 C34.51065332 73.29082821 34.51065332 73.29082821 33 72 C30.8125 70 30.8125 70 29 68 C29 67.01 29 66.02 29 65 C27.515 64.505 27.515 64.505 26 64 C22 58.62857143 22 58.62857143 22 56 C21.38125 55.7525 20.7625 55.505 20.125 55.25 C17.57496075 53.74997691 17.23777652 52.6302751 16 50 C14.68 48.68 13.36 47.36 12 46 C11.67 59.2 11.34 72.4 11 86 C7.37 86 3.74 86 0 86 C0 57.62 0 29.24 0 0 Z " fill="#030303" transform="translate(490,207)"/>
<path d="M0 0 C16.17 0 32.34 0 49 0 C49 3.96 49 7.92 49 12 C36.46 12 23.92 12 11 12 C11 19.92 11 27.84 11 36 C29.315 36.495 29.315 36.495 48 37 C48 40.96 48 44.92 48 49 C35.79 49 23.58 49 11 49 C11 56.92 11 64.84 11 73 C23.54 73.33 36.08 73.66 49 74 C49 77.96 49 81.92 49 86 C32.83 86 16.66 86 0 86 C0 57.62 0 29.24 0 0 Z " fill="#020202" transform="translate(186,207)"/>
<path d="M0 0 C7.734375 -0.020625 15.46875 -0.04125 23.4375 -0.0625 C25.88212646 -0.071604 28.32675293 -0.08070801 30.84545898 -0.09008789 C32.77067001 -0.09300691 34.69588165 -0.0955555 36.62109375 -0.09765625 C38.13564148 -0.1053302 38.13564148 -0.1053302 39.68078613 -0.11315918 C40.6348938 -0.11328003 41.58900146 -0.11340088 42.57202148 -0.11352539 C43.40475082 -0.115746 44.23748016 -0.11796661 45.09544373 -0.12025452 C47 0 47 0 48 1 C48 4.63 48 8.26 48 12 C35.79 12.33 23.58 12.66 11 13 C10.67 20.92 10.34 28.84 10 37 C22.21 37 34.42 37 47 37 C47 40.96 47 44.92 47 49 C35.12 49.33 23.24 49.66 11 50 C10.67 57.92 10.34 65.84 10 74 C13.98900391 73.98259766 13.98900391 73.98259766 18.05859375 73.96484375 C20.62345256 73.95705348 23.18831007 73.95097655 25.75317383 73.94506836 C27.54094021 73.94002782 29.32870245 73.93319546 31.11645508 73.92456055 C33.68051168 73.9124827 36.24451397 73.90676906 38.80859375 73.90234375 C39.6127623 73.89718246 40.41693085 73.89202118 41.24546814 73.88670349 C43.16401715 73.88650785 45.08245368 73.93798017 47 74 C49.83823106 76.83823106 48 81.98613514 48 86 C32.16 86 16.32 86 0 86 C0 57.62 0 29.24 0 0 Z " fill="#040404" transform="translate(598,207)"/>
<path d="M0 0 C4.29 0 8.58 0 13 0 C13.39832031 1.134375 13.79664062 2.26875 14.20703125 3.4375 C14.74214459 4.95834843 15.27730327 6.47918091 15.8125 8 C16.20405273 9.11568359 16.20405273 9.11568359 16.60351562 10.25390625 C18.11743307 14.55268417 19.67753346 18.82971837 21.2878418 23.09326172 C22.3991429 26.0686685 23.44611653 29.06636335 24.5 32.0625 C26.39951256 37.42696732 26.39951256 37.42696732 28.5625 42.6875 C31.43226714 49.30044168 33.77674737 56.14497107 36 63 C36.66 61.68 37.32 60.36 38 59 C38.66 59 39.32 59 40 59 C40.10957031 58.45472656 40.21914062 57.90945313 40.33203125 57.34765625 C41.51009937 51.74464935 43.087035 46.3945613 45 41 C45.66 41 46.32 41 47 41 C47.12246094 40.15179688 47.24492188 39.30359375 47.37109375 38.4296875 C48.02206903 34.87964842 48.97441716 31.56474576 50.0625 28.125 C50.42472656 26.97257812 50.78695312 25.82015625 51.16015625 24.6328125 C51.43730469 23.76398438 51.71445313 22.89515625 52 22 C52.66 22 53.32 22 54 22 C54.103125 21.17113281 54.20625 20.34226563 54.3125 19.48828125 C55.10403576 15.47213673 56.44090019 11.95655025 58 8.1875 C58.27328125 7.50751953 58.5465625 6.82753906 58.828125 6.12695312 C60.85446429 1.14553571 60.85446429 1.14553571 62 0 C63.85287502 -0.07226502 65.70833878 -0.0838122 67.5625 -0.0625 C68.57441406 -0.05347656 69.58632812 -0.04445312 70.62890625 -0.03515625 C71.41136719 -0.02355469 72.19382812 -0.01195312 73 0 C70.95944855 8.27833474 68.14046997 16.08189703 65 24 C64.4750635 25.4151514 63.95354472 26.83158199 63.4375 28.25 C62.41095139 31.02226122 61.239037 33.6911991 60 36.375 C58.62098836 39.42334153 57.5311977 42.40533288 56.625 45.625 C54.81492792 51.97008964 52.25256496 58.00424565 49.76416016 64.10400391 C48.57495384 67.05460334 47.44483273 70.02719896 46.3125 73 C44.63775393 77.38135181 42.89563525 81.70987811 41 86 C38.03 86 35.06 86 32 86 C29.30438396 79.0105766 26.61730754 72.01914295 24 65 C23.29744355 63.12651612 22.59485904 61.25304276 21.89208984 59.37963867 C20.89831728 56.7287626 19.90616243 54.07728375 18.9140625 51.42578125 C14.3950371 39.35344351 9.87418177 27.28473726 5.14453125 15.29296875 C4.65944092 14.05812744 4.65944092 14.05812744 4.16455078 12.79833984 C3.52398046 11.16858296 2.88052582 9.53995616 2.23388672 7.91259766 C0 2.22419573 0 2.22419573 0 0 Z " fill="#070707" transform="translate(65,207)"/>
<path d="M0 0 C20.13 0 40.26 0 61 0 C61 3.96 61 7.92 61 12 C52.75 12 44.5 12 36 12 C36 36.42 36 60.84 36 86 C32.37 86 28.74 86 25 86 C25 61.58 25 37.16 25 12 C16.75 12 8.5 12 0 12 C0 8.04 0 4.08 0 0 Z " fill="#040404" transform="translate(802,207)"/>
<path d="M0 0 C19.8 0 39.6 0 60 0 C60 3.96 60 7.92 60 12 C52.08 12.33 44.16 12.66 36 13 C35.67 37.09 35.34 61.18 35 86 C31.7 86 28.4 86 25 86 C24.67 61.91 24.34 37.82 24 13 C16.08 12.67 8.16 12.34 0 12 C0 8.04 0 4.08 0 0 Z " fill="#030303" transform="translate(694,207)"/>
<path d="M0 0 C3.3 0 6.6 0 10 0 C10.33 24.09 10.66 48.18 11 73 C29.315 73.495 29.315 73.495 48 74 C48 77.96 48 81.92 48 86 C32.16 86 16.32 86 0 86 C0 57.62 0 29.24 0 0 Z " fill="#040404" transform="translate(283,207)"/>
<path d="M0 0 C3.3 0 6.6 0 10 0 C10 28.38 10 56.76 10 86 C6.7 86 3.4 86 0 86 C0 57.62 0 29.24 0 0 Z " fill="#020202" transform="translate(911,207)"/>
<path d="M0 0 C0.99 0.495 0.99 0.495 2 1 C2 8.26 2 15.52 2 23 C20.315 23.495 20.315 23.495 39 24 C39 27.96 39 31.92 39 36 C27.12 36 15.24 36 3 36 C3 35.67 3 35.34 3 35 C14.22 35 25.44 35 37 35 C37 32.03 37 29.06 37 26 C35.42532959 26.01571045 35.42532959 26.01571045 33.81884766 26.03173828 C29.93134967 26.06788453 26.04386659 26.09088078 22.15625 26.10986328 C20.47230534 26.11993317 18.78837821 26.13358988 17.10449219 26.15087891 C14.68680499 26.17508426 12.26934857 26.18647296 9.8515625 26.1953125 C9.0963028 26.20563507 8.34104309 26.21595764 7.56289673 26.22659302 C5.7070602 26.22699318 3.8518072 26.12222716 2 26 C0 24 0 24 -0.22705078 21.56982422 C-0.21657715 20.5748291 -0.20610352 19.57983398 -0.1953125 18.5546875 C-0.18886719 17.47832031 -0.18242187 16.40195313 -0.17578125 15.29296875 C-0.15902344 14.16503906 -0.14226562 13.03710938 -0.125 11.875 C-0.11597656 10.73933594 -0.10695312 9.60367188 -0.09765625 8.43359375 C-0.07403098 5.62218701 -0.04109013 2.81119702 0 0 Z " fill="#121212" transform="translate(195,220)"/>
<path d="M0 0 C2 3 2 3 2 9 C9.26 9 16.52 9 24 9 C24.33 9.66 24.66 10.32 25 11 C16.75 11 8.5 11 0 11 C0 7.37 0 3.74 0 0 Z " fill="#101010" transform="translate(802,208)"/>
</svg>
